<svg xmlns="http://www.w3.org/2000/svg" xmlns:xlink="http://www.w3.org/1999/xlink" width="385" height="14" viewBox="0 0 385 14"><defs><path id="ag4ia" d="M611.5 1267l2.47 4.4 5.03.95-3.5 3.66.63 4.99-4.63-2.13-4.63 2.13.63-4.99-3.5-3.66 5.03-.95 2.47-4.4"/><path id="ag4ib" d="M628.5 1267l2.47 4.4 5.03.95-3.5 3.66.63 4.99-4.63-2.13-4.63 2.13.63-4.99-3.5-3.66 5.03-.95 2.47-4.4"/><path id="ag4ic" d="M646.5 1267l2.47 4.4 5.03.95-3.5 3.66.63 4.99-4.63-2.13-4.63 2.13.63-4.99-3.5-3.66 5.03-.95 2.47-4.4"/></defs><g><g transform="translate(-343 -1267)"><g fill="#fff" font-family="'Tahoma','Tahoma'" font-size="10" font-style="none" font-weight="400" style="line-height:21px"><text dominant-baseline="text-before-edge" font-family="Helvetica, Arial, sans-serif" transform="translate(679 1270)"><tspan letter-spacing=".1" style="font-kerning:normal">1</tspan><tspan letter-spacing=".1" style="font-kerning:normal">254 Votes</tspan></text></g></g><g transform="translate(-343 -1267)"><use fill="#fff" xlink:href="#ag4ia"/></g><g transform="translate(-343 -1267)"><use fill="#fff" xlink:href="#ag4ib"/></g><g transform="translate(-343 -1267)"><use fill="#fff" xlink:href="#ag4ic"/></g><g transform="translate(-343 -1267)"><g fill="#fff" font-family="'Tahoma','Tahoma'" font-size="10" font-style="none" font-weight="400" style="line-height:21px"><text dominant-baseline="text-before-edge" font-family="Helvetica, Arial, sans-serif" transform="translate(343 1270)"><tspan letter-spacing=".1" style="font-kerning:normal">1</tspan><tspan letter-spacing=".1" style="font-kerning:normal">3th January 2013</tspan></text></g></g><g transform="translate(-343 -1267)"><g fill="#fff" font-family="'Tahoma','Tahoma'" font-size="10" font-style="none" font-weight="400" style="line-height:21px"><text dominant-baseline="text-before-edge" font-family="Helvetica, Arial, sans-serif" transform="translate(493 1270)"><tspan letter-spacing=".1" style="font-kerning:normal">3</tspan><tspan letter-spacing=".1" style="font-kerning:normal">12 Comments</tspan></text></g></g></g></svg>