<svg xmlns="http://www.w3.org/2000/svg" xmlns:xlink="http://www.w3.org/1999/xlink" width="30.438" height="25.06" viewBox="0 0 30.438 25.06">
  <metadata><?xpacket begin="﻿" id="W5M0MpCehiHzreSzNTczkc9d"?>
<x:xmpmeta xmlns:x="adobe:ns:meta/" x:xmptk="Adobe XMP Core 5.6-c138 79.159824, 2016/09/14-01:09:01        ">
   <rdf:RDF xmlns:rdf="http://www.w3.org/1999/02/22-rdf-syntax-ns#">
      <rdf:Description rdf:about=""/>
   </rdf:RDF>
</x:xmpmeta>
                                                                                                    
                                                                                                    
                                                                                                    
                                                                                                    
                                                                                                    
                                                                                                    
                                                                                                    
                                                                                                    
                                                                                                    
                                                                                                    
                                                                                                    
                                                                                                    
                                                                                                    
                                                                                                    
                                                                                                    
                                                                                                    
                                                                                                    
                                                                                                    
                                                                                                    
                                                                                                    
                           
<?xpacket end="w"?></metadata>
<defs>
    <style>
      .cls-1 {
        fill: #fff;
        fill-rule: evenodd;
        filter: url(#filter);
      }
    </style>
    <filter id="filter" x="256" y="1269.94" width="30.438" height="25.06" filterUnits="userSpaceOnUse">
      <feOffset result="offset" dy="1" in="SourceAlpha"/>
      <feGaussianBlur result="blur"/>
      <feFlood result="flood" flood-color="#fff"/>
      <feComposite result="composite" operator="in" in2="blur"/>
      <feBlend result="blend" in="SourceGraphic"/>
      <feFlood result="flood-2" flood-color="#d4d4d4"/>
      <feComposite result="composite-2" operator="in" in2="SourceGraphic"/>
      <feBlend result="blend-2" in2="blend"/>
    </filter>
  </defs>
  <path id="movie_tape" data-name="movie tape" class="cls-1" d="M268,1269.94a12,12,0,1,1-12,12A12,12,0,0,1,268,1269.94Zm0.02,11.06a1,1,0,1,1-1,1A1,1,0,0,1,268.02,1281Zm9.926-3.86c2.384-1.38,6.448-1.87,7.75.38h0q1.706,2.955-1.186,6.95l-0.65.91a11.626,11.626,0,0,0-1.873,3.27,2.876,2.876,0,0,0,.338,2.28,2.537,2.537,0,0,0,2.779,1.25,1.274,1.274,0,0,1,1.231.2,0.523,0.523,0,0,1-.24.8,3.022,3.022,0,0,1-2.585.09,3.878,3.878,0,0,1-2.224-1.72q-1.73-3,1.59-6.99l0.388-.46c1.892-2.27,2.358-4.25,1.394-5.91-0.432-.75-1.519-1-2.722-0.96a8.73,8.73,0,0,0-3.688.97M268,1274a2.5,2.5,0,1,1-2.5,2.5A2.5,2.5,0,0,1,268,1274Zm-5.5,5.5a2.5,2.5,0,1,1-2.5,2.5A2.5,2.5,0,0,1,262.5,1279.5Zm5.5,5.5a2.5,2.5,0,1,1-2.5,2.5A2.5,2.5,0,0,1,268,1285Zm5.5-5.5a2.5,2.5,0,1,1-2.5,2.5A2.5,2.5,0,0,1,273.5,1279.5Z" transform="translate(-256 -1269.94)"/>
</svg>
