<svg xmlns="http://www.w3.org/2000/svg" xmlns:xlink="http://www.w3.org/1999/xlink" width="379" height="21" viewBox="0 0 379 21"><defs><path id="v3pua" d="M611.5 1078l2.47 4.4 5.03.95-3.5 3.66.63 4.99-4.63-2.13-4.63 2.13.63-4.99-3.5-3.66 5.03-.95 2.47-4.4"/><path id="v3pub" d="M628.5 1078l2.47 4.4 5.03.95-3.5 3.66.63 4.99-4.63-2.13-4.63 2.13.63-4.99-3.5-3.66 5.03-.95 2.47-4.4"/><path id="v3puc" d="M646.5 1078l2.47 4.4 5.03.95-3.5 3.66.63 4.99-4.63-2.13-4.63 2.13.63-4.99-3.5-3.66 5.03-.95 2.47-4.4"/><path id="v3pud" d="M663.5 1078l2.47 4.4 5.03.95-3.5 3.66.63 4.99-4.63-2.13-4.63 2.13.63-4.99-3.5-3.66 5.03-.95 2.47-4.4"/><path id="v3pue" d="M466 1075h1v21h-1z"/><path id="v3puf" d="M583 1075h1v21h-1z"/></defs><g><g transform="translate(-343 -1075)"><g fill="#8f8f8f" font-family="'Tahoma','Tahoma'" font-size="10" font-style="none" font-weight="400" style="line-height:21px"><text dominant-baseline="text-before-edge" font-family="Helvetica, Arial, sans-serif" transform="translate(679 1081)"><tspan letter-spacing=".1" style="font-kerning:normal">1</tspan><tspan letter-spacing=".1" style="font-kerning:normal">24 Votes</tspan></text></g></g><g transform="translate(-343 -1075)"><use fill="#afafaf" xlink:href="#v3pua"/></g><g transform="translate(-343 -1075)"><use fill="#afafaf" xlink:href="#v3pub"/></g><g transform="translate(-343 -1075)"><use fill="#afafaf" xlink:href="#v3puc"/></g><g transform="translate(-343 -1075)"><use fill="#afafaf" xlink:href="#v3pud"/></g><g transform="translate(-343 -1075)"><use fill="#dfdfdf" xlink:href="#v3pue"/></g><g transform="translate(-343 -1075)"><use fill="#dfdfdf" xlink:href="#v3puf"/></g><g transform="translate(-343 -1075)"><g fill="#8f8f8f" font-family="'Tahoma','Tahoma'" font-size="10" font-style="none" font-weight="400" style="line-height:21px"><text dominant-baseline="text-before-edge" font-family="Helvetica, Arial, sans-serif" transform="translate(343 1081)"><tspan letter-spacing=".1" style="font-kerning:normal">1</tspan><tspan letter-spacing=".1" style="font-kerning:normal">4th January 2013</tspan></text></g></g><g transform="translate(-343 -1075)"><g fill="#8f8f8f" font-family="'Tahoma','Tahoma'" font-size="10" font-style="none" font-weight="400" style="line-height:21px"><text dominant-baseline="text-before-edge" font-family="Helvetica, Arial, sans-serif" transform="translate(493 1081)"><tspan letter-spacing=".1" style="font-kerning:normal">3</tspan><tspan letter-spacing=".1" style="font-kerning:normal">2 Comments</tspan></text></g></g></g></svg>