<svg xmlns="http://www.w3.org/2000/svg" xmlns:xlink="http://www.w3.org/1999/xlink" width="90" height="43" viewBox="0 0 90 43"><defs><path id="91r5a" d="M610.5 1885a9.5 9.5 0 1 1 0-19 9.5 9.5 0 0 1 0 19zm4.7-9.91c0-.4-.32-.73-.73-.73h-2.92v-2.93c0-.4-.33-.73-.73-.73h-.73c-.4 0-.73.33-.73.73v2.93h-2.92c-.4 0-.74.33-.74.73v.73c0 .4.33.73.74.73h2.92v2.92c0 .4.33.73.73.73h.73c.4 0 .73-.32.73-.73v-2.92h2.92c.4 0 .73-.33.73-.73z"/><mask id="91r5c" width="2" height="2" x="-1" y="-1"><path fill="#fff" d="M601 1866h19v19h-19z"/><use xlink:href="#91r5a"/></mask><filter id="91r5b" width="39" height="40" x="591" y="1856" filterUnits="userSpaceOnUse"><feOffset dy="1" in="SourceGraphic" result="FeOffset1029Out"/><feGaussianBlur in="FeOffset1029Out" result="FeGaussianBlur1030Out" stdDeviation="0 0"/></filter></defs><g><g transform="translate(-565 -1843)"><g fill="#bdbdbd" font-family="'Arial-BoldMT','Arial-BoldMT'" font-size="14" font-style="none" font-weight="400" style="text-transform:uppercase;line-height:21px"><text dominant-baseline="text-before-edge" font-family="Helvetica, Arial, sans-serif" transform="translate(565 1843)"><tspan letter-spacing=".7" style="font-kerning:normal">R</tspan><tspan letter-spacing=".7" style="font-kerning:normal">ead more</tspan></text></g></g><g transform="translate(-565 -1843)"><g filter="url(#91r5b)"><use fill="none" stroke-width="0" mask="url(&quot;#91r5c&quot;)" xlink:href="#91r5a"/><use fill="#fff" xlink:href="#91r5a"/></g><use fill="#bdbdbd" xlink:href="#91r5a"/></g></g></svg>